<svg width="1024" height="1024" viewBox="0 0 1024 1024" fill="none" xmlns="http://www.w3.org/2000/svg">
<path fill-rule="evenodd" clip-rule="evenodd" d="M792.245 785.794C722.943 853.952 627.882 896 523 896C310.923 896 139 724.077 139 512C139 299.923 310.923 128 523 128C629.039 128 725.039 170.981 794.529 240.471L726.647 308.353C674.529 256.236 602.529 224 523 224C363.942 224 235 352.942 235 512C235 671.058 363.942 800 523 800C601.372 800 672.433 768.695 724.36 717.908L792.245 785.794Z" fill="url(#paint0_linear_10_33)"/>
<rect x="510" y="320" width="80" height="384" fill="url(#paint1_linear_10_33)"/>
<rect x="510" y="552" width="80" height="320" transform="rotate(-90 510 552)" fill="url(#paint2_linear_10_33)"/>
<rect x="750" y="320" width="80" height="384" fill="url(#paint3_linear_10_33)"/>
<defs>
<linearGradient id="paint0_linear_10_33" x1="466.764" y1="128" x2="466.764" y2="896" gradientUnits="userSpaceOnUse">
<stop stop-color="#CECECE"/>
<stop offset="1" stop-color="#2F2E2E"/>
</linearGradient>
<linearGradient id="paint1_linear_10_33" x1="550" y1="320" x2="550" y2="704" gradientUnits="userSpaceOnUse">
<stop stop-color="white"/>
<stop offset="1" stop-color="#CFC9C9"/>
</linearGradient>
<linearGradient id="paint2_linear_10_33" x1="550" y1="552" x2="550" y2="872" gradientUnits="userSpaceOnUse">
<stop stop-color="white"/>
<stop offset="1" stop-color="#CFC9C9"/>
</linearGradient>
<linearGradient id="paint3_linear_10_33" x1="790" y1="320" x2="790" y2="704" gradientUnits="userSpaceOnUse">
<stop stop-color="white"/>
<stop offset="1" stop-color="#CFC9C9"/>
</linearGradient>
</defs>
</svg>
