<svg width="780" height="780" viewBox="0 0 780 780" fill="none" xmlns="http://www.w3.org/2000/svg">
<path fill-rule="evenodd" clip-rule="evenodd" d="M697.245 663.794C627.943 731.952 532.882 774 428 774C215.923 774 44 602.077 44 390C44 177.923 215.923 6 428 6C534.039 6 630.039 48.9807 699.529 118.471L631.647 186.353C579.529 134.236 507.529 102 428 102C268.942 102 140 230.942 140 390C140 549.058 268.942 678 428 678C506.372 678 577.433 646.695 629.36 595.908L697.245 663.794Z" fill="url(#paint0_linear_12_22)"/>
<rect x="415" y="198" width="80" height="384" fill="url(#paint1_linear_12_22)"/>
<rect x="415" y="430" width="80" height="320" transform="rotate(-90 415 430)" fill="url(#paint2_linear_12_22)"/>
<rect x="655" y="198" width="80" height="384" fill="url(#paint3_linear_12_22)"/>
<defs>
<linearGradient id="paint0_linear_12_22" x1="371.764" y1="6" x2="371.764" y2="774" gradientUnits="userSpaceOnUse">
<stop stop-color="#484747"/>
<stop offset="1" stop-color="#151515"/>
</linearGradient>
<linearGradient id="paint1_linear_12_22" x1="455" y1="198" x2="455" y2="582" gradientUnits="userSpaceOnUse">
<stop stop-color="#CFC9C9"/>
<stop offset="1" stop-color="#6F6F6F"/>
</linearGradient>
<linearGradient id="paint2_linear_12_22" x1="455" y1="430" x2="455" y2="750" gradientUnits="userSpaceOnUse">
<stop stop-color="#CFC9C9"/>
<stop offset="1" stop-color="#6F6F6F"/>
</linearGradient>
<linearGradient id="paint3_linear_12_22" x1="695" y1="198" x2="695" y2="582" gradientUnits="userSpaceOnUse">
<stop stop-color="#CFC9C9"/>
<stop offset="1" stop-color="#6F6F6F"/>
</linearGradient>
</defs>
</svg>
