<svg width="32" height="32" viewBox="0 0 32 32" fill="none" xmlns="http://www.w3.org/2000/svg">
<path d="M24.4322 3C22.0773 3 19.7813 3.00934 17.4482 3.37138C16.1152 3.57823 14.6785 3.98959 13.4249 4.48553C12.6387 4.79656 11.9971 5.46914 11.3926 6.03295C10.3055 7.04689 9.38305 8.26189 8.49376 9.44761C7.4258 10.8716 6.79116 12.457 6.19325 14.1311C4.98421 17.5165 4.24379 22.1357 6.23452 25.3706C8.14284 28.4716 11.5707 30.4823 15.2354 30.4823C16.5173 30.4823 17.7901 30.5165 19.0627 30.343C20.3246 30.1709 21.7557 29.9846 22.957 29.5383C24.1114 29.1096 25.9958 28.4509 26.1963 27.047" stroke="#BDBDBD" stroke-width="3" stroke-linecap="round"/>
<path d="M15.2405 10.5205C15.1581 11.2626 14.8954 11.9782 14.7454 12.7075C14.5716 13.5522 14.5299 14.3935 14.4926 15.2505C14.4449 16.3484 14.184 17.4867 14.0335 18.5774C13.7558 20.5907 13.3836 22.5977 13.3836 24.633" stroke="#BDBDBD" stroke-width="3" stroke-linecap="round"/>
<path d="M15.7976 10.0563C18.5768 10.0563 21.3978 9.98573 24.1537 9.59203" stroke="#BDBDBD" stroke-width="3" stroke-linecap="round"/>
<path d="M15.2405 17.3911C16.6046 17.3911 17.9612 17.4839 19.3257 17.4839" stroke="#BDBDBD" stroke-width="3" stroke-linecap="round"/>
<path d="M24.047 2.0426C21.6921 2.0426 19.3961 2.05194 17.0629 2.41398C15.7299 2.62083 14.2933 3.03219 13.0396 3.52813C12.2534 3.83916 11.6119 4.51174 11.0074 5.07556C9.92025 6.08949 8.9978 7.30449 8.10851 8.49021C7.04055 9.91416 6.40591 11.4996 5.808 13.1737C4.59896 16.5591 3.85854 21.1783 5.84927 24.4132C7.75759 27.5142 11.1854 29.5249 14.8501 29.5249C16.1321 29.5249 17.4048 29.5591 18.6774 29.3856C19.9393 29.2135 21.3704 29.0272 22.5718 28.5809C23.7261 28.1522 25.6105 27.4935 25.8111 26.0896" stroke="black" stroke-width="3" stroke-linecap="round"/>
<path d="M14.8553 9.56309C14.7728 10.3052 14.5102 11.0208 14.3601 11.7501C14.1863 12.5948 14.1446 13.4361 14.1074 14.2931C14.0596 15.391 13.7987 16.5293 13.6483 17.62C13.3706 19.6333 12.9984 21.6403 12.9984 23.6756" stroke="black" stroke-width="3" stroke-linecap="round"/>
<path d="M15.4124 9.09886C18.1915 9.09886 21.0126 9.02833 23.7685 8.63463" stroke="black" stroke-width="3" stroke-linecap="round"/>
<path d="M14.8553 16.4337C16.2193 16.4337 17.5759 16.5265 18.9405 16.5265" stroke="black" stroke-width="3" stroke-linecap="round"/>
</svg>
